PathFileType	4	(x/y/z)	S01_M20_T12.trc
DataRate	CameraRate	NumFrames	NumMarkers	Units	OrigDataRate	OrigDataStartFrame	OrigNumFrames
240	240	4	51	mm	240	325	432
Frame#	Time	Sternum			R.Acromium			L.Acromium			Top.Head			R.ASIS			L.ASIS			R.PSIS			L.PSIS			R.Great.Tro			L.Great.Tro			R.Iliac.Crest			L.Iliac.Crest			V.Sacral			R.Thigh.Upper.Post			R.Thigh.Lower.Ant			R.Thigh.Lower.Post			R.Thigh.Upper.Ant			R.Knee.Lat			R.Knee.Med			R.Shank.Upper.Post			R.Shank.Lower.Ant			R.Shank.Lower.Post			R.Shank.Upper.Ant			R.Ankle.Lat			R.Ankle.Med			R.Heel.Upper			R.Heel.Med			R.Heel.Lat			R.Toe.Lat			R.Toe.Med			R.Toe.Tip			L.Thigh.Upper.Post			L.Thigh.Lower.Ant			L.Thigh.Lower.Post			L.Thigh.Upper.Ant			L.Knee.Lat			L.Knee.Med			L.Shank.Upper.Post			L.Shank.Lower.Ant			L.Shank.Lower.Post			L.Shank.Upper.Ant			L.Ankle.Lat			L.Ankle.Med			L.Heel.Upper			L.Heel.Med			L.Heel.Lat			L.Toe.Lat			L.Toe.Med			L.Toe.Tip			Cervical.Spine			Back			
		X1	Y1	Z1	X2	Y2	Z2	X3	Y3	Z3	X4	Y4	Z4	X5	Y5	Z5	X6	Y6	Z6	X7	Y7	Z7	X8	Y8	Z8	X9	Y9	Z9	X10	Y10	Z10	X11	Y11	Z11	X12	Y12	Z12	X13	Y13	Z13	X14	Y14	Z14	X15	Y15	Z15	X16	Y16	Z16	X17	Y17	Z17	X18	Y18	Z18	X19	Y19	Z19	X20	Y20	Z20	X21	Y21	Z21	X22	Y22	Z22	X23	Y23	Z23	X24	Y24	Z24	X25	Y25	Z25	X26	Y26	Z26	X27	Y27	Z27	X28	Y28	Z28	X29	Y29	Z29	X30	Y30	Z30	X31	Y31	Z31	X32	Y32	Z32	X33	Y33	Z33	X34	Y34	Z34	X35	Y35	Z35	X36	Y36	Z36	X37	Y37	Z37	X38	Y38	Z38	X39	Y39	Z39	X40	Y40	Z40	X41	Y41	Z41	X42	Y42	Z42	X43	Y43	Z43	X44	Y44	Z44	X45	Y45	Z45	X46	Y46	Z46	X47	Y47	Z47	X48	Y48	Z48	X49	Y49	Z49	X50	Y50	Z50	X51	Y51	Z51	

325	1.35	464.29	1281.9	295.37	352.12	1538.5	459.18	342.77	1544.6	129.33	407.96	1848.3	265.16	399.88	1030.1	460.75	428.09	1028.4	195.23	174.66	1072.7	342.24	182.82	1069.9	238.62	312.87	977.63	533.83	335.87	979.36	107.21	310.71	1133.6	513.3	324.85	1108.4	108.08	164.84	1034.8	286.39	340.92	671.07	533.82	420.83	607	533.78	356.41	583.02	525.01	408.98	696.98	540.92	373.78	524.54	530.86	416.26	514.59	385.98	226.66	460.25	525.55	209.03	357.59	487.82	172.8	418.62	508.66	261.35	403.92	511.35	22.373	288.99	453.55	65.541	259.56	370.29	-24.213	324.95	379.69	-33.281	296.18	347.36	-52.254	301.22	409.51	18.875	137.79	492.57	71.585	112.4	382.82	109.18	73.373	449.38	355.43	689.72	140.99	451.29	636.31	149.45	380.41	604.92	164.77	417.49	722.33	125.29	446.16	531.12	164.85	459.84	544.12	304.42	391.58	392.93	147.13	449.43	302.82	178.13	390.29	315.34	153.66	451.58	379.21	167.71	366.04	105.49	194.72	389.24	117.21	292.44	293.2	75.926	239.95	302.65	51.643	274.67	302.29	48.893	212.01	512.85	40.242	182.86	536.35	47.251	305.33	600.7	54.937	255.27	261.84	1600.5	296.83	165.86	1290.5	315.1
326	1.3542	469.22	1283.3	295.28	356.76	1539.9	458.9	347.7	1545.9	129.06	412.87	1849.5	264.83	404.98	1031.6	460.56	433.03	1029.5	195.09	179.72	1073.9	342.39	187.75	1071.1	238.76	318.28	979.21	533.87	340.55	980.29	107.24	315.84	1135.2	513.1	329.7	1109.5	108.06	169.8	1036	286.56	349.25	672.62	534.15	429.75	609.31	533.87	365.54	584.73	525.17	417.07	699.16	541.14	383.47	526.42	530.9	425.86	516.95	386.01	237.04	460.67	525.66	220.51	357.78	487.89	183.63	418.42	508.79	272.32	404.71	511.41	34.611	287.12	453.84	77.946	258.33	370.48	-12.793	322.3	380.07	-21.539	293.32	347.83	-40.353	298.13	410.03	33.699	136.02	493	86.321	111.34	383.1	124.86	73.08	449.54	357.85	690.54	140.94	453.28	636.34	149.24	382.17	605.53	164.59	420.14	722.64	125.14	447.24	531.18	164.56	461.19	543.95	304.13	392.06	393.08	146.95	449.73	302.83	177.86	390.58	315.5	153.48	452.07	379.21	167.42	366.1	105.57	194.68	389.34	117.33	292.36	293.24	76.044	239.94	302.68	51.772	274.65	302.31	49.014	211.99	512.87	40.199	182.82	536.37	47.27	305.29	600.71	54.905	255.22	266.69	1601.6	296.42	170.87	1291.7	314.76
327	1.3583	474.16	1284.7	295.19	361.4	1541.2	458.64	352.62	1547.1	128.81	417.74	1850.6	264.52	410.08	1033.2	460.36	437.95	1030.6	194.92	184.77	1075.1	342.56	192.67	1072.2	238.92	323.71	980.78	533.93	345.18	981.17	107.27	320.96	1136.7	512.91	334.53	1110.6	108.02	174.75	1037.2	286.76	357.56	674.18	534.48	438.64	611.63	533.9	374.63	586.44	525.32	425.14	701.34	541.31	393.1	528.3	530.9	435.35	519.33	386	247.4	461	525.77	232.03	357.9	487.95	194.47	418.11	508.92	283.3	405.45	511.46	46.938	285.04	454.16	90.44	256.96	370.68	-1.3173	319.41	380.51	-9.7112	290.23	348.36	-28.361	294.78	410.6	48.737	134.07	493.42	101.27	110.18	383.35	140.78	72.708	449.65	360.23	691.36	140.9	455.22	636.37	149.03	383.89	606.13	164.43	422.73	722.95	125.01	448.28	531.23	164.28	462.49	543.78	303.85	392.51	393.22	146.78	450.01	302.85	177.6	390.87	315.65	153.32	452.53	379.22	167.13	366.16	105.65	194.65	389.43	117.44	292.28	293.28	76.161	239.93	302.71	51.9	274.64	302.34	49.135	211.98	512.89	40.156	182.79	536.39	47.289	305.26	600.73	54.876	255.18	271.54	1602.7	296.03	175.87	1292.8	314.45
328	1.3625	479.09	1286	295.1	366.03	1542.5	458.39	357.52	1548.4	128.57	422.58	1851.7	264.25	415.2	1034.7	460.14	442.86	1031.7	194.73	189.81	1076.3	342.74	197.58	1073.3	239.09	329.15	982.32	533.99	349.78	982.02	107.31	326.07	1138.2	512.73	339.32	1111.6	107.98	179.69	1038.3	286.97	365.85	675.75	534.83	447.49	613.95	533.89	383.68	588.17	525.47	433.19	703.52	541.45	402.69	530.18	530.87	444.72	521.7	385.96	257.75	461.24	525.87	243.58	357.93	488	205.32	417.68	509.06	294.28	406.13	511.49	59.358	282.75	454.5	103.02	255.45	370.89	10.221	316.29	380.98	2.2102	286.91	348.91	-16.273	291.17	411.2	63.981	131.96	493.82	116.44	108.94	383.57	156.92	72.267	449.73	362.56	692.17	140.88	457.12	636.39	148.83	385.57	606.74	164.29	425.28	723.24	124.88	449.29	531.3	164	463.75	543.61	303.58	392.94	393.37	146.6	450.27	302.87	177.34	391.14	315.79	153.15	452.98	379.24	166.85	366.22	105.74	194.61	389.52	117.55	292.2	293.31	76.277	239.93	302.73	52.027	274.62	302.36	49.258	211.96	512.9	40.113	182.76	536.4	47.307	305.22	600.74	54.85	255.14	276.37	1603.8	295.66	180.86	1293.9	314.15
